<svg width="512" height="512" viewBox="0 0 512 512" fill="none" xmlns="http://www.w3.org/2000/svg">
  <!-- Background -->
  <rect width="512" height="512" rx="115" fill="#000000"/>

  <!-- Neural Network Pattern -->
  <g opacity="0.1">
    <circle cx="128" cy="128" r="8" fill="white"/>
    <circle cx="256" cy="128" r="8" fill="white"/>
    <circle cx="384" cy="128" r="8" fill="white"/>
    <circle cx="128" cy="256" r="8" fill="white"/>
    <circle cx="256" cy="256" r="8" fill="white"/>
    <circle cx="384" cy="256" r="8" fill="white"/>
    <circle cx="128" cy="384" r="8" fill="white"/>
    <circle cx="256" cy="384" r="8" fill="white"/>
    <circle cx="384" cy="384" r="8" fill="white"/>

    <!-- Connections -->
    <line x1="128" y1="128" x2="256" y2="128" stroke="white" stroke-width="2"/>
    <line x1="256" y1="128" x2="384" y2="128" stroke="white" stroke-width="2"/>
    <line x1="128" y1="128" x2="128" y2="256" stroke="white" stroke-width="2"/>
    <line x1="256" y1="128" x2="256" y2="256" stroke="white" stroke-width="2"/>
    <line x1="384" y1="128" x2="384" y2="256" stroke="white" stroke-width="2"/>
    <line x1="128" y1="256" x2="256" y2="256" stroke="white" stroke-width="2"/>
    <line x1="256" y1="256" x2="384" y2="256" stroke="white" stroke-width="2"/>
    <line x1="128" y1="256" x2="128" y2="384" stroke="white" stroke-width="2"/>
    <line x1="256" y1="256" x2="256" y2="384" stroke="white" stroke-width="2"/>
    <line x1="384" y1="256" x2="384" y2="384" stroke="white" stroke-width="2"/>
    <line x1="128" y1="384" x2="256" y2="384" stroke="white" stroke-width="2"/>
    <line x1="256" y1="384" x2="384" y2="384" stroke="white" stroke-width="2"/>
  </g>

  <!-- Letter N -->
  <path d="M170 180 L170 332 L200 332 L200 238 L268 332 L302 332 L302 180 L272 180 L272 274 L204 180 L170 180 Z" fill="white"/>

  <!-- AI Sparkle -->
  <g transform="translate(320, 180)">
    <circle cx="20" cy="20" r="4" fill="#8B5CF6"/>
    <circle cx="12" cy="20" r="2" fill="#A78BFA"/>
    <circle cx="28" cy="20" r="2" fill="#A78BFA"/>
    <circle cx="20" cy="12" r="2" fill="#A78BFA"/>
    <circle cx="20" cy="28" r="2" fill="#A78BFA"/>
  </g>
</svg>
